<?xml version="1.0" encoding="UTF-8"?>
<svg id="Capa_1" data-name="Capa 1" xmlns="http://www.w3.org/2000/svg" xmlns:xlink="http://www.w3.org/1999/xlink" viewBox="0 0 109.92 108.92">
  <defs>
    <style>
      .cls-1 {
        fill: #6e33f9;
        filter: url(#drop-shadow-1);
      }

      .cls-1, .cls-2 {
        stroke-width: 0px;
      }

      .cls-2 {
        fill: #fff;
      }
    </style>
    <filter id="drop-shadow-1" filterUnits="userSpaceOnUse">
      <feOffset dx="-4" dy="3"/>
      <feGaussianBlur result="blur" stdDeviation="0"/>
      <feFlood flood-color="#1d0d3e" flood-opacity="1"/>
      <feComposite in2="blur" operator="in"/>
      <feComposite in="SourceGraphic"/>
    </filter>
  </defs>
  <rect class="cls-1" x="8.69" y="4.69" width="96.54" height="96.54" rx="22.95" ry="22.95" transform="translate(12.16 -10.62) rotate(11.91)"/>
  <path class="cls-2" d="m22.69,36.64c-.21-.71-.42-1.59-.42-2.3,0-3.41,2.53-5.95,5.55-5.95,2.53,0,4.57,1.83,5.27,4.37l9.77,34.05,9.84-33.74c.84-2.86,2.74-4.84,5.48-4.84h.84c2.74,0,4.64,1.9,5.48,4.84l9.84,33.74,9.77-34.05c.7-2.38,2.53-4.37,5.2-4.37,2.95,0,5.34,2.54,5.34,5.87,0,.71-.21,1.67-.42,2.38l-13.77,43.66c-.98,3.1-3.02,5-5.62,5h-1.12c-2.6,0-4.57-1.83-5.55-5l-9.7-31.83-9.7,31.83c-.98,3.17-2.95,5-5.55,5h-1.12c-2.6,0-4.64-1.9-5.62-5l-13.77-43.66Z"/>
</svg>