<?xml version="1.0" encoding="utf-8"?>
<!-- Generator: Adobe Illustrator 28.0.0, SVG Export Plug-In . SVG Version: 6.00 Build 0)  -->
<svg version="1.1" id="Capa_1" xmlns="http://www.w3.org/2000/svg" xmlns:xlink="http://www.w3.org/1999/xlink" x="0px" y="0px"
	 viewBox="0 0 280.8 115.4" style="enable-background:new 0 0 280.8 115.4;" xml:space="preserve">
<style type="text/css">
	.st0{fill:#1D0D3E;}
	.st1{fill:#6E33F9;}
	.st2{fill:#FFFFFF;}
</style>
<g>
	<g>
		<path class="st0" d="M69.4,113.3l-49.5-10.5C7.4,100.2-0.5,88,2.1,75.6l10.5-49.5C15.2,13.7,27.4,5.7,39.8,8.3l49.5,10.5
			c12.4,2.6,20.3,14.8,17.7,27.2L96.6,95.5C94,107.9,81.8,115.9,69.4,113.3z"/>
	</g>
	<g>
		<path class="st1" d="M77.4,108.3L27.8,97.8C15.4,95.2,7.5,83,10.1,70.6l10.5-49.5C23.2,8.7,35.4,0.7,47.8,3.3l49.5,10.5
			c12.4,2.6,20.3,14.8,17.7,27.2l-10.5,49.5C102,102.9,89.8,110.9,77.4,108.3z"/>
	</g>
</g>
<g>
	<path class="st2" d="M29.4,39.5c-0.2-0.7-0.4-1.6-0.4-2.3c0-3.4,2.5-6,5.6-6c2.5,0,4.6,1.8,5.3,4.4l9.8,34.1l9.7-33.8
		c0.8-2.9,2.7-4.8,5.5-4.8h0.8c2.7,0,4.6,1.9,5.5,4.8L81,69.6l9.8-34.1c0.7-2.4,2.5-4.4,5.2-4.4c3,0,5.3,2.5,5.3,5.9
		c0,0.7-0.2,1.7-0.4,2.4L87.2,83.1c-1,3.1-3,5-5.6,5h-1.2c-2.6,0-4.6-1.8-5.6-5l-9.7-31.8l-9.7,31.8c-1,3.2-3,5-5.6,5h-1.1
		c-2.6,0-4.6-1.9-5.6-5L29.4,39.5z"/>
	<path class="st2" d="M99.4,66.2V66c0-11.3,7.8-20.7,18.4-20.7s18.3,9.2,18.3,20.5V66c0,11.2-7.8,20.6-18.5,20.6
		C107.1,86.6,99.4,77.4,99.4,66.2z M128.2,66.2V66c0-7-4.4-12.7-10.6-12.7c-6.3,0-10.4,5.7-10.4,12.6V66c0,6.9,4.4,12.7,10.5,12.7
		C124.2,78.7,128.2,73,128.2,66.2z"/>
	<path class="st2" d="M141.2,74.8V53.9h-1.4c-2,0-3.7-1.7-3.7-3.9s1.6-3.9,3.7-3.9h1.4v-6.7c0-2.5,1.9-4.5,4.3-4.5
		c2.3,0,4.2,2,4.2,4.5v6.7h6.7c2,0,3.7,1.7,3.7,3.9s-1.7,3.9-3.7,3.9h-6.7v19.4c0,3.5,1.7,4.9,4.6,4.9c1,0,1.8-0.2,2.1-0.2
		c1.9,0,3.6,1.6,3.6,3.8c0,1.6-1.1,3-2.2,3.5c-1.8,0.7-3.6,1-5.8,1C145.6,86.4,141.2,83.5,141.2,74.8z"/>
	<path class="st2" d="M163.2,35.5c0-2.7,2.1-4.4,4.8-4.4s4.8,1.7,4.8,4.4V36c0,2.7-2.1,4.5-4.8,4.5s-4.8-1.8-4.8-4.5V35.5z
		 M163.9,50.3c0-2.5,1.8-4.6,4.2-4.6s4.3,2,4.3,4.6v31.3c0,2.5-1.9,4.5-4.3,4.5c-2.3,0-4.2-2-4.2-4.5V50.3z"/>
	<path class="st2" d="M178.6,50.3c0-2.5,1.7-4.6,4-4.6s4,2,4,4.6v2c2.2-3.7,5.5-6.9,10.9-6.9c7.9,0,12.4,6,12.4,15.1v21.1
		c0,2.5-1.7,4.5-4,4.5c-2.2,0-4-2-4-4.5V63.2c0-6.2-2.7-9.7-7.5-9.7c-4.6,0-7.9,3.7-7.9,9.8v18.2c0,2.5-1.8,4.5-4,4.5s-4-2-4-4.5
		V50.3H178.6z"/>
	<path class="st2" d="M217.9,94.4c-1.4-0.6-2.2-1.9-2.2-3.6c0-2,1.5-3.7,3.3-3.7c0.6,0,1,0.1,1.4,0.4c3.1,2,6.6,3.1,10.6,3.1
		c7.1,0,10.9-4.2,10.9-12.1v-3.1c-2.9,4.3-6.5,7.3-12.2,7.3c-8.1,0-15.7-6.9-15.7-18.5v-0.1c0-11.7,7.7-18.6,15.7-18.6
		c5.8,0,9.4,3.1,12.1,6.8v-1.9c0-2.5,1.8-4.5,3.9-4.5c2.2,0,4,2,4,4.6v27.4c0,6.7-1.5,11.6-4.4,14.9c-3.1,3.6-8,5.3-14.2,5.3
		C226.4,97.9,222.1,96.7,217.9,94.4z M242,64v-0.2c0-6.4-4.6-10.9-10.1-10.9s-9.8,4.3-9.8,10.9V64c0,6.4,4.4,10.9,9.8,10.9
		C237.4,74.9,242,70.4,242,64z"/>
</g>
</svg>
